<svg xmlns="http://www.w3.org/2000/svg" version="1.1" xmlns:xlink="http://www.w3.org/1999/xlink" xmlns:svgjs="http://svgjs.dev/svgjs" width="100%" height="100%" viewBox="0 0 1000 600"><rect width="1000" height="600" x="0" y="0" fill="#9c3a9c"/><g><circle r="166.66666666666666" cx="351.7776743570963" cy="373.99989534801495" fill="#333333" transform="matrix(0.6752704296507026,0,0,0.6752704296507024,0,47.44891624061614)"/><path d="M362.4173640293335 448.9999034195002L340.4814301491358 448.9999034195002L290.6406007886866 298.99989841014826L309.98003637286087 298.99989841014826L334.6915373970836 374.65648669083015L351.2255610292326 430.9437945793374L352.2999741172423 430.9437945793374L369.28166986939533 374.65648669083015L394.20208454961994 298.99989841014826L412.9147791657886 298.99989841014826L362.4173640293335 448.9999034195002Z " fill="#ffffff" transform="matrix(0.6752704296507026,0,0,0.6752704296507024,0,47.44891624061614)"/><path d="M657.5695272352348 415.5944009572917L640.518799310009 415.5944009572917L601.7776896023531 298.9998995257477L616.810168099695 298.9998995257477L636.0183350685209 357.80751216581217L648.8701762529768 401.5594480392487L649.7053139472735 401.5594480392487L662.9051291710198 357.80751216581217L682.2756840248477 298.9998995257477L696.8209988671831 298.9998995257477L657.5695272352348 415.5944009572917ZM741.918434359209 417.58945211588957L741.918434359209 417.58945211588957Q733.2190833769508 417.58945211588957 726.0508181675702 414.4344874929906Q718.8593546889035 411.25632460080567 713.7789337152649 405.31756766358416Q708.6753144723401 399.4020089956487 705.8451256194455 391.12022686053905Q702.9917384972648 382.8616429947154 702.9917384972648 372.4920166238638L702.9917384972648 372.4920166238638Q702.9917384972648 362.3079764073004 705.8451256194455 353.9565994643326Q708.6753144723401 345.60522252136485 713.7789337152649 339.6896638534294Q718.8593546889035 333.7509069162079 726.0508181675702 330.57274402402294Q733.2190833769508 327.394581131838 741.918434359209 327.394581131838L741.918434359209 327.394581131838Q750.594587072181 327.394581131838 757.6932574737035 330.57274402402294Q764.7919278752261 333.7509069162079 769.9651419260089 339.6896638534294Q775.1615542460777 345.60522252136485 777.9917430989724 353.9565994643326Q780.821931951867 362.3079764073004 780.821931951867 372.4920166238638L780.821931951867 372.4920166238638Q780.821931951867 382.8616429947154 777.9917430989724 391.12022686053905Q775.1615542460777 399.4020089956487 769.9651419260089 405.31756766358416Q764.7919278752261 411.25632460080567 757.6932574737035 414.4344874929906Q750.594587072181 417.58945211588957 741.918434359209 417.58945211588957ZM741.918434359209 405.73513651073256L741.918434359209 405.73513651073256Q752.775224385067 405.73513651073256 759.6187138244433 399.0540349563584Q766.4622032638197 392.3729334019842 766.4622032638197 378.68595452323154L766.4622032638197 378.68595452323154L766.4622032638197 366.3212769937821Q766.4622032638197 352.63429811502937 759.6187138244433 345.9531965606552Q752.775224385067 339.272095006281 741.918434359209 339.272095006281L741.918434359209 339.272095006281Q731.0616443333508 339.272095006281 724.2181548939745 345.9531965606552Q717.3514671853121 352.63429811502937 717.3514671853121 366.3212769937821L717.3514671853121 366.3212769937821L717.3514671853121 378.68595452323154Q717.3514671853121 392.3729334019842 724.2181548939745 399.0540349563584Q731.0616443333508 405.73513651073256 741.918434359209 405.73513651073256ZM838.6320190126324 415.5944009572917L821.929265126697 415.5944009572917Q814.9001895330325 415.5944009572917 811.3044577936992 411.6738934479541Q807.7319243236518 407.7533859386164 807.7319243236518 401.39706015424656L807.7319243236518 401.39706015424656L807.7319243236518 341.1047582798767L793.5345835206067 341.1047582798767L793.5345835206067 329.4128305597219L801.5379864242841 329.4128305597219Q805.8760627807701 329.4128305597219 807.4767433615057 327.64976209398424Q809.0542256729551 325.90989189753265 809.0542256729551 321.5486172717606L809.0542256729551 321.5486172717606L809.0542256729551 305.51861319511977L821.0941274324002 305.51861319511977L821.0941274324002 329.4128305597219L839.9543203619357 329.4128305597219L839.9543203619357 341.1047582798767L821.0941274324002 341.1047582798767L821.0941274324002 403.90247323713686L838.6320190126324 403.90247323713686L838.6320190126324 415.5944009572917ZM893.2407449119271 417.58945211588957L893.2407449119271 417.58945211588957Q884.3790060446669 417.58945211588957 877.2803356431443 414.4344874929906Q870.1816652416217 411.25632460080567 865.101244267983 405.31756766358416Q859.9976250250583 399.4020089956487 857.2370309800217 391.12022686053905Q854.4996352042712 382.8616429947154 854.4996352042712 372.4920166238638L854.4996352042712 372.4920166238638Q854.4996352042712 362.3079764073004 857.2370309800217 353.9565994643326Q859.9976250250583 345.60522252136485 865.101244267983 339.6896638534294Q870.1816652416217 333.7509069162079 877.2803356431443 330.57274402402294Q884.3790060446669 327.394581131838 893.2407449119271 327.394581131838L893.2407449119271 327.394581131838Q901.9168976248991 327.394581131838 908.7835853335614 330.57274402402294Q915.6270747729377 333.7509069162079 920.4755130537162 339.3416898141391Q925.3007530652087 344.93247271207025 927.8989592252431 352.63429811502937Q930.4971653852775 360.3129252487025 930.4971653852775 369.499439885967L930.4971653852775 369.499439885967L930.4971653852775 375.8325674010509L868.5113898530282 375.8325674010509L868.5113898530282 379.8458679875326Q868.5113898530282 385.3670560776057 870.2744583187658 390.1227012812401Q872.0375267845034 394.8783464848745 875.2852844845464 398.38128514706375Q878.5330421845895 401.907422078539 883.3118856575098 403.90247323713686Q888.0675308611442 405.8975243957347 894.0758826062238 405.8975243957347L894.0758826062238 405.8975243957347Q902.2648716641894 405.8975243957347 908.3660164864131 402.06980996354116Q914.4439630393506 398.2188972620616 917.7845138165378 391.05063205268095L917.7845138165378 391.05063205268095L927.3190024930926 397.8941214920573Q923.1433140216087 406.7326620900315 914.2815751543485 412.16105710296057Q905.4430345563744 417.58945211588957 893.2407449119271 417.58945211588957ZM893.2407449119271 338.5993451969864L893.2407449119271 338.5993451969864Q887.719556821854 338.5993451969864 883.2190925803658 340.52480154772616Q878.7186283388776 342.42705962917995 875.4476723695486 345.9531965606552Q872.1999146695056 349.45613522284447 870.3672513959099 354.21178042647887Q868.5113898530282 358.96742563011327 868.5113898530282 364.6510016051885L868.5113898530282 364.6510016051885L868.5113898530282 365.81091506948957L916.1142384279442 365.81091506948957L916.1142384279442 363.97825179589387Q916.1142384279442 352.4487119607412 909.8507057207185 345.5356277135068Q903.5871730134926 338.5993451969864 893.2407449119271 338.5993451969864ZM995.1275436161334 372.00485296885734L951.537995627699 372.00485296885734L951.537995627699 357.64512428081L995.1275436161334 357.64512428081L995.1275436161334 372.00485296885734ZM1106.5256327276086 415.5944009572917L1091.841128269557 415.5944009572917L1080.1492005494022 381.19136760612184L1033.0335156294925 381.19136760612184L1021.3415879093377 415.5944009572917L1007.1442471062926 415.5944009572917L1047.9036062418322 298.9998995257477L1065.789471861355 298.9998995257477L1106.5256327276086 415.5944009572917ZM1076.6462618872129 368.8266900766724L1056.9277329940946 312.0373268644918L1056.092595299798 312.0373268644918L1036.3740664066795 368.8266900766724L1076.6462618872129 368.8266900766724ZM1124.5738862321332 448.99990872916266L1124.5738862321332 329.4128305597219L1137.9360893408816 329.4128305597219L1137.9360893408816 343.44778347776486L1138.6088391501762 343.44778347776486Q1141.9493899273634 335.2587944197993 1148.3753105195915 331.33828691046165Q1154.8012311118193 327.394581131838 1163.8253578640815 327.394581131838L1163.8253578640815 327.394581131838Q1171.8519590370452 327.394581131838 1178.347474437131 330.57274402402294Q1184.8661881065032 333.7509069162079 1189.4594454251355 339.5968707762853Q1194.0527027437677 345.44283463636276 1196.4885210188 353.79421157933047Q1198.9011410245462 362.14558852229817 1198.9011410245462 372.4920166238638L1198.9011410245462 372.4920166238638Q1198.9011410245462 382.8616429947154 1196.4885210188 391.2130199376831Q1194.0527027437677 399.56439688065086 1189.4594454251355 405.41036074072827Q1184.8661881065032 411.25632460080567 1178.347474437131 414.4344874929906Q1171.8519590370452 417.58945211588957 1163.8253578640815 417.58945211588957L1163.8253578640815 417.58945211588957Q1146.2874662838494 417.58945211588957 1138.6088391501762 401.5594480392487L1138.6088391501762 401.5594480392487L1137.9360893408816 401.5594480392487L1137.9360893408816 448.99990872916266L1124.5738862321332 448.99990872916266ZM1160.1600313168901 405.5727486257304L1160.1600313168901 405.5727486257304Q1171.5039849977547 405.5727486257304 1178.0226986671269 398.47407822420786Q1184.541412336499 391.3754078226853 1184.541412336499 379.8458679875326L1184.541412336499 379.8458679875326L1184.541412336499 365.161363529481Q1184.541412336499 353.6318236943283 1178.0226986671269 346.53315329280576Q1171.5039849977547 339.43448289128315 1160.1600313168901 339.43448289128315L1160.1600313168901 339.43448289128315Q1155.636368806116 339.43448289128315 1151.5534734117764 340.6871894327283Q1147.4473797481505 341.93989597417345 1144.4548030102537 344.0973350177735Q1141.439028003071 346.2779723306595 1139.6991578066193 349.36334214570036Q1137.9360893408816 352.4487119607412 1137.9360893408816 355.97484889221647L1137.9360893408816 355.97484889221647L1137.9360893408816 388.0348570454982Q1137.9360893408816 392.21054551698205 1139.6991578066193 395.45830321702505Q1141.439028003071 398.7292591863541 1144.4548030102537 400.97949130709816Q1147.4473797481505 403.22972342784226 1151.5534734117764 404.41283516142937Q1155.636368806116 405.5727486257304 1160.1600313168901 405.5727486257304ZM1221.4498587705589 448.99990872916266L1221.4498587705589 329.4128305597219L1234.8120618793073 329.4128305597219L1234.8120618793073 343.44778347776486L1235.484811688602 343.44778347776486Q1238.825362465789 335.2587944197993 1245.2512830580172 331.33828691046165Q1251.6772036502448 327.394581131838 1260.7013304025074 327.394581131838L1260.7013304025074 327.394581131838Q1268.7279315754708 327.394581131838 1275.2234469755567 330.57274402402294Q1281.7421606449288 333.7509069162079 1286.335417963561 339.5968707762853Q1290.9286752821934 345.44283463636276 1293.3644935572256 353.79421157933047Q1295.7771135629719 362.14558852229817 1295.7771135629719 372.4920166238638L1295.7771135629719 372.4920166238638Q1295.7771135629719 382.8616429947154 1293.3644935572256 391.2130199376831Q1290.9286752821934 399.56439688065086 1286.335417963561 405.41036074072827Q1281.7421606449288 411.25632460080567 1275.2234469755567 414.4344874929906Q1268.7279315754708 417.58945211588957 1260.7013304025074 417.58945211588957L1260.7013304025074 417.58945211588957Q1243.163438822275 417.58945211588957 1235.484811688602 401.5594480392487L1235.484811688602 401.5594480392487L1234.8120618793073 401.5594480392487L1234.8120618793073 448.99990872916266L1221.4498587705589 448.99990872916266ZM1257.0360038553158 405.5727486257304L1257.0360038553158 405.5727486257304Q1268.3799575361804 405.5727486257304 1274.8986712055525 398.47407822420786Q1281.4173848749247 391.3754078226853 1281.4173848749247 379.8458679875326L1281.4173848749247 379.8458679875326L1281.4173848749247 365.161363529481Q1281.4173848749247 353.6318236943283 1274.8986712055525 346.53315329280576Q1268.3799575361804 339.43448289128315 1257.0360038553158 339.43448289128315L1257.0360038553158 339.43448289128315Q1252.5123413445417 339.43448289128315 1248.429445950202 340.6871894327283Q1244.3233522865762 341.93989597417345 1241.3307755486794 344.0973350177735Q1238.3150005414966 346.2779723306595 1236.575130345045 349.36334214570036Q1234.8120618793073 352.4487119607412 1234.8120618793073 355.97484889221647L1234.8120618793073 355.97484889221647L1234.8120618793073 388.0348570454982Q1234.8120618793073 392.21054551698205 1236.575130345045 395.45830321702505Q1238.3150005414966 398.7292591863541 1241.3307755486794 400.97949130709816Q1244.3233522865762 403.22972342784226 1248.429445950202 404.41283516142937Q1252.5123413445417 405.5727486257304 1257.0360038553158 405.5727486257304Z " fill="#ffffff" transform="matrix(0.6752704296507026,0,0,0.6752704296507024,0,47.44891624061614)"/></g></svg>